<svg xmlns="http://www.w3.org/2000/svg" viewBox="0 0 407 72" width="407" height="72" role="img" aria-label="ToolsRift Colors">
  <title>ToolsRift Colors</title>
  <g>
  <defs>
    <linearGradient id="l-bg" x1="0" y1="0" x2="1" y2="1">
      <stop offset="0" stop-color="#2d134a"/>
      <stop offset="1" stop-color="#130b22"/>
    </linearGradient>
    <linearGradient id="l-cg" x1="0" y1="0" x2="1" y2="1">
      <stop offset="0" stop-color="#F0ABFC"/>
      <stop offset="0.55" stop-color="#A855F7"/>
      <stop offset="1" stop-color="#9333EA"/>
    </linearGradient>
    <radialGradient id="l-hl" cx="0.3" cy="0.25" r="0.8">
      <stop offset="0" stop-color="#fff" stop-opacity="0.3"/>
      <stop offset="1" stop-color="#fff" stop-opacity="0"/>
    </radialGradient>
    <clipPath id="l-c"><rect width="72.00" height="72.00" rx="16.00"/></clipPath>
  </defs>
  <rect width="72.00" height="72.00" rx="16.00" fill="url(#l-bg)"/>
  <g clip-path="url(#l-c)">
    <rect x="10.00" y="10.00" width="14.00" height="14.00" rx="3.50" fill="#3e1965"/><rect x="29.00" y="10.00" width="14.00" height="14.00" rx="3.50" fill="#3e1965"/><rect x="48.00" y="10.00" width="14.00" height="14.00" rx="3.50" fill="#3e1965"/><rect x="10.00" y="29.00" width="14.00" height="14.00" rx="3.50" fill="#3e1965"/><rect x="29.00" y="29.00" width="14.00" height="14.00" rx="3.50" fill="#3e1965"/><rect x="48.00" y="29.00" width="14.00" height="14.00" rx="3.50" fill="#3e1965"/><rect x="10.00" y="48.00" width="14.00" height="14.00" rx="3.50" fill="#3e1965"/><rect x="29.00" y="48.00" width="14.00" height="14.00" rx="3.50" fill="#3e1965"/><rect x="48.00" y="48.00" width="14.00" height="14.00" rx="3.50" fill="#3e1965"/><rect x="48.00" y="10.00" width="14.00" height="14.00" rx="3.50" fill="#5f328d" stroke="#F0ABFC" stroke-width="0.80"/><rect x="29.00" y="29.00" width="14.00" height="14.00" rx="3.50" fill="#5f328d" stroke="#F0ABFC" stroke-width="0.80"/><rect x="10.00" y="48.00" width="14.00" height="14.00" rx="3.50" fill="#5f328d" stroke="#F0ABFC" stroke-width="0.80"/>
    <g class="tr-rift"><line x1="66.00" y1="8.00" x2="6.00" y2="66.00" stroke="#9333EA" stroke-width="16.00" stroke-linecap="round" opacity="0.1"/><line x1="66.00" y1="8.00" x2="6.00" y2="66.00" stroke="#A855F7" stroke-width="9.00" stroke-linecap="round" opacity="0.18"/><line x1="66.00" y1="8.00" x2="6.00" y2="66.00" stroke="#A855F7" stroke-width="4.00" stroke-linecap="round" opacity="0.75"/><line x1="66.00" y1="8.00" x2="6.00" y2="66.00" stroke="#F0ABFC" stroke-width="1.60" stroke-linecap="round" opacity="0.9"/><line x1="66.00" y1="8.00" x2="6.00" y2="66.00" stroke="#FFFFFF" stroke-width="0.60" stroke-linecap="round" opacity="0.65"/></g>
    <circle cx="66.00" cy="8.00" r="2.80" fill="#F0ABFC" opacity="0.75"/>
    <circle cx="66.00" cy="8.00" r="1.10" fill="#fff" opacity="0.9"/>
    <circle cx="6.00" cy="66.00" r="2.20" fill="#F0ABFC" opacity="0.5"/>
  </g>
  <rect x="0.50" y="0.50" width="71.00" height="71.00" rx="15.50" fill="none" stroke="#4e2a76" stroke-width="0.80" opacity="0.8"/>
  <rect x="10.00" y="0.80" width="26.00" height="1.20" rx="0.60" fill="#fff" opacity="0.06"/>
  <circle cx="60.00" cy="60.00" r="17.50" fill="#130b22"/>
  <circle cx="60.00" cy="60.00" r="15.00" fill="url(#l-cg)"/>
  <circle cx="60.00" cy="60.00" r="15.00" fill="url(#l-hl)"/>
  <g transform="translate(50.25 50.25) scale(0.1950)" color="#ffffff"><circle cx="50" cy="36" r="18" fill="currentColor" opacity=".55"/><circle cx="36" cy="60" r="18" fill="currentColor" opacity=".75"/><circle cx="64" cy="60" r="18" fill="currentColor" opacity=".95"/></g>
  </g>
  <text x="88" y="46" font-family="Sora, 'Segoe UI', system-ui, -apple-system, Helvetica, Arial, sans-serif" font-weight="800" font-size="30" letter-spacing="-0.6" fill="#F8FAFC">ToolsRift</text>
  <text x="275.20000000000005" y="46" font-family="Sora, 'Segoe UI', system-ui, -apple-system, Helvetica, Arial, sans-serif" font-weight="800" font-size="30" letter-spacing="-0.6" fill="#A855F7">Colors</text>
</svg>
