<svg xmlns="http://www.w3.org/2000/svg" viewBox="0 0 387 72" width="387" height="72" role="img" aria-label="ToolsRift Audio">
  <title>ToolsRift Audio</title>
  <g>
  <defs>
    <linearGradient id="l-bg" x1="0" y1="0" x2="1" y2="1">
      <stop offset="0" stop-color="#270f42"/>
      <stop offset="1" stop-color="#110a1f"/>
    </linearGradient>
    <linearGradient id="l-cg" x1="0" y1="0" x2="1" y2="1">
      <stop offset="0" stop-color="#D8B4FE"/>
      <stop offset="0.55" stop-color="#9333EA"/>
      <stop offset="1" stop-color="#7E22CE"/>
    </linearGradient>
    <radialGradient id="l-hl" cx="0.3" cy="0.25" r="0.8">
      <stop offset="0" stop-color="#fff" stop-opacity="0.3"/>
      <stop offset="1" stop-color="#fff" stop-opacity="0"/>
    </radialGradient>
    <clipPath id="l-c"><rect width="72.00" height="72.00" rx="16.00"/></clipPath>
  </defs>
  <rect width="72.00" height="72.00" rx="16.00" fill="url(#l-bg)"/>
  <g clip-path="url(#l-c)">
    <rect x="10.00" y="10.00" width="14.00" height="14.00" rx="3.50" fill="#35125a"/><rect x="29.00" y="10.00" width="14.00" height="14.00" rx="3.50" fill="#35125a"/><rect x="48.00" y="10.00" width="14.00" height="14.00" rx="3.50" fill="#35125a"/><rect x="10.00" y="29.00" width="14.00" height="14.00" rx="3.50" fill="#35125a"/><rect x="29.00" y="29.00" width="14.00" height="14.00" rx="3.50" fill="#35125a"/><rect x="48.00" y="29.00" width="14.00" height="14.00" rx="3.50" fill="#35125a"/><rect x="10.00" y="48.00" width="14.00" height="14.00" rx="3.50" fill="#35125a"/><rect x="29.00" y="48.00" width="14.00" height="14.00" rx="3.50" fill="#35125a"/><rect x="48.00" y="48.00" width="14.00" height="14.00" rx="3.50" fill="#35125a"/><rect x="48.00" y="10.00" width="14.00" height="14.00" rx="3.50" fill="#531f86" stroke="#D8B4FE" stroke-width="0.80"/><rect x="29.00" y="29.00" width="14.00" height="14.00" rx="3.50" fill="#531f86" stroke="#D8B4FE" stroke-width="0.80"/><rect x="10.00" y="48.00" width="14.00" height="14.00" rx="3.50" fill="#531f86" stroke="#D8B4FE" stroke-width="0.80"/>
    <g class="tr-rift"><line x1="66.00" y1="8.00" x2="6.00" y2="66.00" stroke="#7E22CE" stroke-width="16.00" stroke-linecap="round" opacity="0.1"/><line x1="66.00" y1="8.00" x2="6.00" y2="66.00" stroke="#9333EA" stroke-width="9.00" stroke-linecap="round" opacity="0.18"/><line x1="66.00" y1="8.00" x2="6.00" y2="66.00" stroke="#9333EA" stroke-width="4.00" stroke-linecap="round" opacity="0.75"/><line x1="66.00" y1="8.00" x2="6.00" y2="66.00" stroke="#D8B4FE" stroke-width="1.60" stroke-linecap="round" opacity="0.9"/><line x1="66.00" y1="8.00" x2="6.00" y2="66.00" stroke="#FFFFFF" stroke-width="0.60" stroke-linecap="round" opacity="0.65"/></g>
    <circle cx="66.00" cy="8.00" r="2.80" fill="#D8B4FE" opacity="0.75"/>
    <circle cx="66.00" cy="8.00" r="1.10" fill="#fff" opacity="0.9"/>
    <circle cx="6.00" cy="66.00" r="2.20" fill="#D8B4FE" opacity="0.5"/>
  </g>
  <rect x="0.50" y="0.50" width="71.00" height="71.00" rx="15.50" fill="none" stroke="#451b70" stroke-width="0.80" opacity="0.8"/>
  <rect x="10.00" y="0.80" width="26.00" height="1.20" rx="0.60" fill="#fff" opacity="0.06"/>
  <circle cx="60.00" cy="60.00" r="17.50" fill="#110a1f"/>
  <circle cx="60.00" cy="60.00" r="15.00" fill="url(#l-cg)"/>
  <circle cx="60.00" cy="60.00" r="15.00" fill="url(#l-hl)"/>
  <g transform="translate(50.25 50.25) scale(0.1950)" color="#ffffff"><path d="M18 42v16M30 30v40M42 22v56M54 34v32M66 26v48M78 40v20" fill="none" stroke="currentColor" stroke-width="8" stroke-linecap="round" stroke-linejoin="round"/></g>
  </g>
  <text x="88" y="46" font-family="Sora, 'Segoe UI', system-ui, -apple-system, Helvetica, Arial, sans-serif" font-weight="800" font-size="30" letter-spacing="-0.6" fill="#F8FAFC">ToolsRift</text>
  <text x="275.20000000000005" y="46" font-family="Sora, 'Segoe UI', system-ui, -apple-system, Helvetica, Arial, sans-serif" font-weight="800" font-size="30" letter-spacing="-0.6" fill="#9333EA">Audio</text>
</svg>
