<svg xmlns="http://www.w3.org/2000/svg" viewBox="0 0 72 72" width="72" height="72">
  <defs>
    <linearGradient id="bg" x1="0" y1="0" x2="1" y2="1">
      <stop offset="0%" stop-color="#0D1B36"/>
      <stop offset="100%" stop-color="#060A14"/>
    </linearGradient>
    <clipPath id="cp"><rect width="72" height="72" rx="16"/></clipPath>
  </defs>
  <rect width="72" height="72" rx="16" fill="url(#bg)"/>
  <g clip-path="url(#cp)">
    <rect x="10" y="10" width="14" height="14" rx="3.5" fill="#1B3460"/>
    <rect x="29" y="10" width="14" height="14" rx="3.5" fill="#1B3460"/>
    <rect x="48" y="10" width="14" height="14" rx="3.5" fill="#1B3460"/>
    <rect x="10" y="29" width="14" height="14" rx="3.5" fill="#1B3460"/>
    <rect x="29" y="29" width="14" height="14" rx="3.5" fill="#1B3460"/>
    <rect x="48" y="29" width="14" height="14" rx="3.5" fill="#1B3460"/>
    <rect x="10" y="48" width="14" height="14" rx="3.5" fill="#1B3460"/>
    <rect x="29" y="48" width="14" height="14" rx="3.5" fill="#1B3460"/>
    <rect x="48" y="48" width="14" height="14" rx="3.5" fill="#1B3460"/>
    <rect x="48" y="10" width="14" height="14" rx="3.5" fill="#164E75" stroke="#38BDF8" stroke-width="0.8"/>
    <rect x="29" y="29" width="14" height="14" rx="3.5" fill="#164E75" stroke="#38BDF8" stroke-width="0.8"/>
    <rect x="10" y="48" width="14" height="14" rx="3.5" fill="#164E75" stroke="#38BDF8" stroke-width="0.8"/>
    <line x1="66" y1="8" x2="6" y2="66" stroke="#1A6FD8" stroke-width="14" stroke-linecap="round" opacity="0.10"/>
    <line x1="66" y1="8" x2="6" y2="66" stroke="#38BDF8" stroke-width="4" stroke-linecap="round" opacity="0.75"/>
    <line x1="66" y1="8" x2="6" y2="66" stroke="#7DD8FB" stroke-width="1.6" stroke-linecap="round" opacity="0.90"/>
    <line x1="66" y1="8" x2="6" y2="66" stroke="#FFFFFF" stroke-width="0.6" stroke-linecap="round" opacity="0.65"/>
    <circle cx="66" cy="8" r="2.8" fill="#38BDF8" opacity="0.75"/>
    <circle cx="66" cy="8" r="1.1" fill="white" opacity="0.9"/>
    <circle cx="6"  cy="66" r="2.2" fill="#38BDF8" opacity="0.50"/>
  </g>
  <rect x="0.5" y="0.5" width="71" height="71" rx="15.5" fill="none" stroke="#1A3A6A" stroke-width="0.8" opacity="0.7"/>
</svg>
