<svg width="1200" height="630" viewBox="0 0 1200 630"
  xmlns="http://www.w3.org/2000/svg">
  <defs>
    <linearGradient id="bg" x1="0%" y1="0%" x2="100%" y2="100%">
      <stop offset="0%" style="stop-color:#06090F"/>
      <stop offset="100%" style="stop-color:#0D1424"/>
    </linearGradient>
    <linearGradient id="accent" x1="0%" y1="0%" x2="100%" y2="0%">
      <stop offset="0%" style="stop-color:#6366F1"/>
      <stop offset="100%" style="stop-color:#8B5CF6"/>
    </linearGradient>
    <radialGradient id="glow" cx="50%" cy="40%" r="60%">
      <stop offset="0%" style="stop-color:#6366F1;stop-opacity:0.2"/>
      <stop offset="100%" style="stop-color:#06090F;stop-opacity:0"/>
    </radialGradient>
  </defs>

  <!-- Background -->
  <rect width="1200" height="630" fill="url(#bg)"/>
  <rect width="1200" height="630" fill="url(#glow)"/>

  <!-- Grid lines -->
  <g opacity="0.06" stroke="#6366F1" stroke-width="1">
    <line x1="0" y1="60" x2="1200" y2="60"/>
    <line x1="0" y1="120" x2="1200" y2="120"/>
    <line x1="0" y1="180" x2="1200" y2="180"/>
    <line x1="0" y1="240" x2="1200" y2="240"/>
    <line x1="0" y1="300" x2="1200" y2="300"/>
    <line x1="0" y1="360" x2="1200" y2="360"/>
    <line x1="0" y1="420" x2="1200" y2="420"/>
    <line x1="0" y1="480" x2="1200" y2="480"/>
    <line x1="0" y1="540" x2="1200" y2="540"/>
    <line x1="0" y1="600" x2="1200" y2="600"/>
    <line x1="60" y1="0" x2="60" y2="630"/>
    <line x1="120" y1="0" x2="120" y2="630"/>
    <line x1="180" y1="0" x2="180" y2="630"/>
    <line x1="240" y1="0" x2="240" y2="630"/>
    <line x1="300" y1="0" x2="300" y2="630"/>
    <line x1="360" y1="0" x2="360" y2="630"/>
    <line x1="420" y1="0" x2="420" y2="630"/>
    <line x1="480" y1="0" x2="480" y2="630"/>
    <line x1="540" y1="0" x2="540" y2="630"/>
    <line x1="600" y1="0" x2="600" y2="630"/>
    <line x1="660" y1="0" x2="660" y2="630"/>
    <line x1="720" y1="0" x2="720" y2="630"/>
    <line x1="780" y1="0" x2="780" y2="630"/>
    <line x1="840" y1="0" x2="840" y2="630"/>
    <line x1="900" y1="0" x2="900" y2="630"/>
    <line x1="960" y1="0" x2="960" y2="630"/>
    <line x1="1020" y1="0" x2="1020" y2="630"/>
    <line x1="1080" y1="0" x2="1080" y2="630"/>
    <line x1="1140" y1="0" x2="1140" y2="630"/>
  </g>

  <!-- Badge -->
  <rect x="430" y="130" width="340" height="36" rx="18"
    fill="rgba(99,102,241,0.12)" stroke="rgba(99,102,241,0.3)" stroke-width="1"/>
  <text x="600" y="153" text-anchor="middle"
    font-family="system-ui,sans-serif" font-size="13" font-weight="600"
    fill="#A5B4FC">
    544+ Free Tools · No Signup Required
  </text>

  <!-- Main heading -->
  <text x="600" y="260" text-anchor="middle"
    font-family="system-ui,sans-serif" font-size="72" font-weight="900"
    fill="url(#accent)">
    ToolsRift
  </text>
  <text x="600" y="330" text-anchor="middle"
    font-family="system-ui,sans-serif" font-size="28" font-weight="600"
    fill="#94A3B8">
    Every Tool You Need. Completely Free.
  </text>

  <!-- Feature pills -->
  <rect x="170" y="390" width="180" height="40" rx="20"
    fill="rgba(16,185,129,0.1)" stroke="rgba(16,185,129,0.25)" stroke-width="1"/>
  <text x="260" y="415" text-anchor="middle"
    font-family="system-ui,sans-serif" font-size="14" font-weight="600" fill="#34D399">
    ⚡ Instant Results
  </text>

  <rect x="510" y="390" width="180" height="40" rx="20"
    fill="rgba(99,102,241,0.1)" stroke="rgba(99,102,241,0.25)" stroke-width="1"/>
  <text x="600" y="415" text-anchor="middle"
    font-family="system-ui,sans-serif" font-size="14" font-weight="600" fill="#A5B4FC">
    🔒 100% Private
  </text>

  <rect x="850" y="390" width="180" height="40" rx="20"
    fill="rgba(245,158,11,0.1)" stroke="rgba(245,158,11,0.25)" stroke-width="1"/>
  <text x="940" y="415" text-anchor="middle"
    font-family="system-ui,sans-serif" font-size="14" font-weight="600" fill="#FCD34D">
    🆓 Always Free
  </text>

  <!-- Domain -->
  <text x="600" y="530" text-anchor="middle"
    font-family="system-ui,sans-serif" font-size="18" font-weight="500"
    fill="#475569">
    toolsrift.com
  </text>
</svg>